HIERARCHY
ROOT Hips
{
	OFFSET -3.958830 18.904000 13.208200
	CHANNELS 6 Xposition Yposition Zposition Zrotation Yrotation Xrotation 
	JOINT LHipJoint
	{
		OFFSET 0.000000 0.000000 0.000000
		CHANNELS 3 Zrotation Yrotation Xrotation
		JOINT LeftUpLeg
		{
			OFFSET 1.800000 -1.400000 0.085000
			CHANNELS 3 Zrotation Yrotation Xrotation
			JOINT LeftLeg
			{
				OFFSET 2.215000 -6.000000 0.000000
				CHANNELS 3 Zrotation Yrotation Xrotation
				JOINT LeftFoot
				{
					OFFSET 2.500000 -6.900000 0.000000
					CHANNELS 3 Zrotation Yrotation Xrotation
					JOINT LeftToeBase
					{
						OFFSET 0.200000 -0.500000 1.950000
						CHANNELS 3 Zrotation Yrotation Xrotation
						End Site
						{
							OFFSET 0.000000 0.000000 0.000000
						}
					}
				}
			}
		}
	}
	JOINT RHipJoint
	{
		OFFSET 0.000000 0.000000 0.000000
		CHANNELS 3 Zrotation Yrotation Xrotation
		JOINT RightUpLeg
		{
			OFFSET -1.800000 -1.400000 0.085000
			CHANNELS 3 Zrotation Yrotation Xrotation
			JOINT RightLeg
			{
				OFFSET -2.215000 -6.000000 0.000000
				CHANNELS 3 Zrotation Yrotation Xrotation
				JOINT RightFoot
				{
					OFFSET -2.500000 -6.900000 0.000000
					CHANNELS 3 Zrotation Yrotation Xrotation
					JOINT RightToeBase
					{
						OFFSET -0.200000 -0.500000 1.950000
						CHANNELS 3 Zrotation Yrotation Xrotation
						End Site
						{
							OFFSET 0.000000 0.000000 0.000000
						}
					}
				}
			}
		}
	}
	JOINT LowerBack
	{
		OFFSET 0.000000 0.000000 0.000000
		CHANNELS 3 Zrotation Yrotation Xrotation
		JOINT Spine
		{
			OFFSET -0.087000 1.940000 -0.288900
			CHANNELS 3 Zrotation Yrotation Xrotation
			JOINT Spine1
			{
				OFFSET 0.000000 1.950000 0.060000
				CHANNELS 3 Zrotation Yrotation Xrotation
				JOINT Neck
				{
					OFFSET 0.000000 0.000000 0.000000
					CHANNELS 3 Zrotation Yrotation Xrotation
					JOINT Neck1
					{
						OFFSET 0.000000 1.600000 0.340000
						CHANNELS 3 Zrotation Yrotation Xrotation
						JOINT Head
						{
							OFFSET 0.000000 1.667000 -0.240000
							CHANNELS 3 Zrotation Yrotation Xrotation
							End Site
							{
								OFFSET 0.000000 0.000000 0.000000
							}
						}
					}
				}
				JOINT LeftShoulder
				{
					OFFSET 0.000000 0.000000 0.000000
					CHANNELS 3 Zrotation Yrotation Xrotation
					JOINT LeftArm
					{
						OFFSET 2.700000 1.550000 -0.730000
						CHANNELS 3 Zrotation Yrotation Xrotation
						JOINT LeftForeArm
						{
							OFFSET 5.450000 0.000000 0.000000
							CHANNELS 3 Zrotation Yrotation Xrotation
							JOINT LeftHand
							{
								OFFSET 3.450000 0.000000 0.000000
								CHANNELS 3 Zrotation Yrotation Xrotation
								JOINT LeftHandIndex1
								{
									OFFSET 0.750000 0.000000 0.000000
									CHANNELS 3 Zrotation Yrotation Xrotation
									End Site
									{
										OFFSET 0.000000 0.000000 0.000000
									}
								}
							}
						}
					}
				}
				JOINT RightShoulder
				{
					OFFSET 0.000000 0.000000 0.000000
					CHANNELS 3 Zrotation Yrotation Xrotation
					JOINT RightArm
					{
						OFFSET -2.700000 1.550000 -0.730000
						CHANNELS 3 Zrotation Yrotation Xrotation
						JOINT RightForeArm
						{
							OFFSET -5.450000 0.000000 0.000000
							CHANNELS 3 Zrotation Yrotation Xrotation
							JOINT RightHand
							{
								OFFSET -3.450000 0.000000 0.000000
								CHANNELS 3 Zrotation Yrotation Xrotation
								JOINT RightHandIndex1
								{
									OFFSET -0.750000 0.000000 0.000000
									CHANNELS 3 Zrotation Yrotation Xrotation
									End Site
									{
										OFFSET 0.000000 0.000000 0.000000
									}
								}
							}
						}
					}
				}
			}
		}
	}
}
MOTION
Frames: 11
Frame Time: 0.016667
0.111700 16.890630 -0.860580 -18.663490 22.353298 -13.955240 -15.089819 12.725352 2.089245 14.266159 -2.722155 -18.526040 -1.937246 8.685146 35.760595 0.159872 6.464618 2.209814 0.465860 0.281690 0.260140 18.553857 -8.854133 5.213568 -10.260221 8.577522 -49.252912 -1.114987 -0.252119 -9.415436 -0.001088 -1.010854 3.977953 0.049660 0.058380 0.111320 -4.485847 -1.665947 -8.808280 21.133380 -9.691324 33.911591 -10.063457 -1.461512 7.683480 2.561361 -3.194680 -11.917311 -11.771393 -4.539863 43.659072 11.576340 -12.372190 -14.669340 0.796492 -25.746845 2.437779 16.433503 -28.282919 -11.965329 71.011914 -29.540040 -21.494266 -3.466227 2.862709 0.474390 -0.194500 0.172240 0.257250 -6.307779 27.004929 7.585122 -33.060671 11.301872 -10.358892 -23.114588 3.642994 -1.366486 2.818421 -1.263443 0.005990 0.160250 -0.205940 0.037110 
-0.026170 16.836280 -0.957250 -17.745464 19.701289 -15.021386 -15.150717 12.568955 2.256108 15.620975 -2.079795 -20.134923 -3.623240 10.507465 37.957665 0.324523 7.150291 1.958687 0.405510 0.241020 0.212760 18.545736 -8.495684 5.524399 -9.272318 11.882465 -52.227339 1.883723 0.060892 -6.241446 0.084096 -0.549461 4.161430 0.001100 0.070970 0.101820 -4.249544 -1.737139 -8.978157 17.479747 -8.092297 40.843522 -10.110753 0.088445 6.175799 2.581638 -3.954611 -12.471881 -12.810802 -4.418773 41.398616 13.077760 -11.935240 -15.791420 2.398656 -28.294754 1.910302 18.200510 -30.228233 -14.872056 76.603945 -26.144280 -22.385643 -3.554965 2.874252 0.475500 -0.199610 0.178770 0.244450 -7.815908 31.122929 8.127747 -35.694837 9.366840 -12.205203 -26.082637 5.515299 -1.727117 2.896232 -1.262720 0.007300 0.164880 -0.183580 0.051760 
-0.115300 16.821040 -0.998930 -18.197055 19.407078 -17.602661 -15.223566 12.646878 2.129508 17.139905 -1.006689 -19.366648 -3.104050 10.972300 38.490633 0.231012 7.481105 1.867883 0.482170 0.361960 0.206610 18.524304 -8.350076 5.653964 -4.249505 15.018600 -52.623155 0.277274 -0.173111 -0.389558 0.194546 -0.220892 4.292245 0.169700 0.201850 0.081880 -4.076375 -1.900480 -8.866694 14.760422 -7.289655 44.178588 -9.192483 0.499516 9.934018 2.502872 -4.247745 -10.940155 -11.453307 -5.429111 36.282634 12.183630 -11.431250 -17.271120 5.021712 -30.922639 0.581579 19.707959 -33.128206 -18.138584 81.610222 -22.820553 -23.658161 -3.762099 2.892204 0.402070 -0.108150 0.091820 0.290500 -10.443336 34.226867 7.022484 -37.023096 11.064900 -15.702755 -32.461626 6.323024 -3.181445 2.882306 -1.458648 -0.056500 0.304410 -0.164760 0.072990 
-0.203910 16.813870 -1.049960 -20.099497 20.481185 -17.492721 -15.256581 12.073691 2.077152 19.251523 -0.316434 -22.057698 -2.921230 11.694172 39.443258 0.049152 7.933295 1.682088 0.618600 0.547720 0.188560 18.693091 -7.682220 6.319485 -5.320989 18.728491 -59.206797 2.261779 -0.744230 11.218603 0.227513 -0.524878 4.124096 0.425950 0.345850 0.079100 -4.215947 -1.751333 -9.017400 15.223064 -7.995587 42.211490 -9.738153 -0.082327 14.073483 2.231830 -5.007363 -8.924908 -11.246148 -5.096783 32.414818 10.372390 -11.368520 -16.020850 7.787609 -32.754376 -0.404823 20.112019 -36.252538 -19.774765 85.515257 -20.451569 -24.765255 -3.935718 2.976071 0.281640 0.014930 -0.041350 0.354540 -12.812872 36.022691 4.468978 -37.561154 17.033099 -19.033895 -39.583387 9.793344 -5.781362 2.711789 -1.755131 -0.118140 0.415400 -0.143670 0.099920 
-0.276220 16.807950 -1.028140 -22.004652 23.418757 -15.298540 -15.242221 11.097469 1.972675 20.468880 0.167193 -26.087301 -2.106533 12.310483 40.761878 -0.089270 8.346403 1.568492 0.706970 0.716650 0.118070 19.003821 -6.794322 7.272639 -14.519235 21.264617 -71.826022 9.725956 -3.740636 26.511653 0.015774 -2.642913 3.359586 0.672730 0.565730 0.030460 -4.642554 -1.306303 -9.337076 17.545278 -8.949584 35.953232 -11.365519 -0.851701 16.901156 1.664416 -5.506309 -6.785515 -11.458815 -3.781642 30.738079 8.526510 -11.524730 -12.415800 8.367971 -34.293671 -0.890817 15.718706 -42.909501 -18.296932 88.038309 -21.584571 -27.728732 -4.059633 2.915274 0.090070 0.193710 -0.228190 0.450790 -12.365585 36.469548 1.216273 -35.280043 28.154251 -20.972641 -47.971472 16.378097 -10.295795 2.406856 -1.948821 -0.203070 0.574200 -0.134240 0.160190 
-0.350010 16.868890 -1.001870 -23.123036 26.953052 -15.299986 -15.226120 10.919821 1.674135 19.393278 0.414358 -27.321696 0.678752 10.802850 39.664688 -0.107162 7.745738 1.799309 0.709260 0.767350 0.012360 19.110752 -6.594223 7.640121 -23.253511 20.775410 -77.447593 21.254956 -8.382872 32.878191 -0.417786 -4.987147 2.576901 0.671060 0.653260 0.061010 -4.896554 -1.132252 -9.447602 18.623859 -9.343070 34.099593 -12.640744 -1.245500 17.559630 1.682522 -5.306511 -6.236008 -11.873108 -2.369750 33.119663 11.125140 -11.991370 -11.533960 7.972019 -37.515538 -0.519705 8.916812 -47.179420 -16.003690 91.488064 -24.273697 -32.244457 -4.073856 2.847673 0.016000 0.225420 -0.243050 0.520790 -12.073305 38.629290 -0.579857 -31.795911 35.249000 -21.648338 -52.468349 21.743186 -13.716177 2.344034 -1.934627 -0.143220 0.585720 -0.132880 0.254340 
-0.412000 16.984350 -0.959030 -23.313246 29.459263 -16.107227 -15.263643 11.175505 1.295157 17.931083 0.273348 -25.222678 2.276312 8.820292 35.404304 -0.272804 6.648368 2.161140 0.733600 0.784340 0.076320 19.046780 -6.671287 7.842501 -24.594344 21.510693 -78.894647 26.190322 -12.284879 38.953293 -0.849255 -6.768070 1.969536 0.646540 0.599190 0.106830 -4.872399 -1.252035 -9.454768 17.573362 -8.605185 34.035514 -12.361603 -0.794417 18.466389 2.890017 -4.808036 -5.889786 -11.318269 -2.133329 36.118478 11.283040 -11.928950 -13.494000 5.542014 -40.623970 0.287345 -1.596050 -49.158789 -11.397451 96.439348 -28.711771 -40.072480 -4.026705 2.656488 0.057070 0.193150 -0.173990 0.479120 -11.632616 41.853639 -1.924490 -24.317982 40.798914 -21.042214 -62.689785 32.718145 -22.213624 2.273126 -1.739125 -0.094380 0.564330 -0.126190 0.242630 
-0.469270 17.093640 -0.911290 -24.012852 33.127402 -16.391680 -15.272354 11.162298 1.182301 17.391356 -0.166931 -24.921169 2.592215 7.638941 31.719758 -0.412911 5.925847 2.459276 0.670600 0.707370 -0.005240 19.037233 -6.712285 7.890059 -23.652941 22.242436 -80.178632 27.326492 -15.838518 45.710686 -1.190170 -8.429230 1.491461 0.619180 0.670220 0.078540 -5.022848 -1.211561 -9.544270 17.801300 -8.595935 33.024158 -12.422932 -0.788278 18.958716 2.960689 -5.234928 -6.457595 -12.723680 -0.691731 38.727892 12.364160 -12.445290 -12.438990 4.060961 -43.957530 1.478076 -12.922055 -48.356551 -8.055514 98.888061 -31.771100 -46.494339 -4.037724 2.434307 0.072540 0.211860 -0.221770 0.492290 -10.259093 45.113974 -2.600674 -14.983680 43.007003 -17.568699 -71.060766 43.769668 -32.113867 2.138490 -1.418516 -0.148090 0.615040 -0.079430 0.250680 
-0.508850 17.224420 -0.868160 -25.466321 37.308399 -17.074706 -15.294254 11.067093 1.202226 17.106002 -0.717599 -25.396671 2.771954 6.630268 28.646316 -0.600859 5.297188 2.632348 0.744150 0.731410 0.075040 18.996369 -6.836280 7.850792 -22.005698 22.898642 -80.640605 27.753145 -19.213585 51.916296 -1.596406 -9.902879 1.019145 0.642270 0.576120 0.075350 -5.226370 -0.942967 -9.754217 18.912636 -8.392867 32.522302 -12.475155 -0.801420 18.727405 4.076420 -5.284066 -6.819671 -13.245377 0.419156 44.079033 14.865080 -12.774480 -15.504930 0.143810 -47.114712 4.569850 -22.253377 -49.088979 -7.567707 97.163534 -31.379893 -47.383311 -3.896120 2.312470 0.219950 0.107660 -0.152230 0.456550 -8.099537 48.100687 -6.119526 0.045837 46.983985 -11.059975 -64.267070 52.161768 -33.389384 2.121745 -1.087273 -0.163930 0.618670 -0.075040 0.193470 
-0.553650 17.313610 -0.789510 -27.247540 40.759771 -16.562529 -15.298612 10.697579 1.491573 18.558266 -1.037545 -27.436240 0.814764 6.820414 26.141233 -0.522603 4.903460 2.730877 0.865250 0.879240 0.190430 18.994962 -6.848728 7.830991 -19.985342 24.567531 -82.493560 27.655383 -22.019889 57.946243 -2.042262 -11.187314 0.665016 0.652590 0.395800 0.038460 -5.432055 -0.537559 -10.232693 20.391800 -7.399866 31.246004 -10.933767 0.074180 18.637698 4.796385 -5.464263 -9.860885 -13.722293 0.015893 50.032851 16.735090 -13.697540 -17.996480 -2.570925 -44.824406 9.774754 -32.591505 -51.304257 -6.612623 94.505139 -37.058269 -53.583310 -3.643494 2.376736 0.274500 -0.050810 -0.010310 0.481890 -5.725466 47.140322 -5.675882 18.482373 49.509779 -3.655593 -60.092282 57.687237 -35.638164 2.191755 -0.526842 -0.067160 0.568390 -0.211850 0.203150 
-0.606630 17.379790 -0.703050 -27.552789 43.112701 -15.177839 -15.339434 10.571516 1.944751 19.748739 -0.828900 -29.583833 -1.647071 7.384323 24.010949 -0.381060 4.705574 2.727804 0.880650 0.882200 0.277720 18.928919 -6.620434 7.968444 -18.700365 27.909084 -84.469180 25.906850 -23.815471 64.706055 -2.455760 -12.342096 0.374727 0.536340 0.173510 0.047230 -5.271056 -0.860809 -10.837780 19.133758 -6.470152 32.994888 -9.799228 0.805980 16.243949 5.314091 -6.017009 -15.421843 -16.864668 1.277043 56.603555 17.686610 -13.678630 -19.189680 -7.106140 -40.815101 12.789431 -42.121878 -48.836760 -7.416908 92.470714 -48.411626 -61.954979 -3.581711 2.444612 0.380940 -0.205900 0.157440 0.446380 -1.630769 45.853304 0.102707 28.573252 55.383805 -4.000934 -36.031434 60.878510 -21.866818 2.123211 -0.171292 0.036730 0.423760 -0.301940 0.175120 
